<svg id="Layer_1" data-name="Layer 1" xmlns="http://www.w3.org/2000/svg" viewBox="0 0 166.41 69.55"><defs><style>.cls-1{fill:#231f20;}.cls-2{fill:#ef4136;}</style></defs><title>logo export</title><path class="cls-1" d="M3.82,57l2.59-2.81L3.54,51.48.94,54.29,0,53.42l5.79-6.25.94.87L4.39,50.56l2.88,2.67L9.61,50.7l.94.87-5.8,6.25Z"/><path class="cls-1" d="M10.94,61.92l3.68-7.69,5,2.37L19,57.72l-3.8-1.82-.9,1.9,2.2,1.06L16,60l-2.21-1-1.16,2.42,4,1.89-.54,1.12Z"/><path class="cls-1" d="M29.17,67.3l.57-4.47c.06-.5.17-1.24.21-1.48l-.71,1.26L26.58,67.1l-1.42-5c-.15-.51-.31-1.14-.37-1.4,0,.25-.11,1-.17,1.49l-.57,4.47-1.2-.16,1.08-8.44,1.31.16L26.56,63c.14.5.33,1.15.39,1.52.17-.34.49-.91.75-1.38l2.44-4.26,1.35.17-1.08,8.45Z"/><path class="cls-1" d="M37.7,67l-1.18-8.44,1.27-.18L39,66.8Z"/><path class="cls-1" d="M48.37,64.39a3.91,3.91,0,0,1-3.32-.16l.52-1.16a3.08,3.08,0,0,0,2.43.12c1.11-.44,1.49-1,1.18-1.81-.24-.61-.83-.73-2.31-.6C45,61,44,60.85,43.46,59.44s.28-2.67,1.74-3.25a3.81,3.81,0,0,1,3,.05l-.5,1.18a2.6,2.6,0,0,0-2.15,0c-.92.37-1.14,1-.93,1.52s.69.68,2.22.54c1.75-.15,2.93,0,3.49,1.38S50.4,63.59,48.37,64.39Z"/><path class="cls-1" d="M58.09,54.86l-1.74,1.4,2,2.48-1,.78L52,52.87l2.79-2.23a2.51,2.51,0,0,1,3.8.36A2.55,2.55,0,0,1,58.09,54.86Zm-2.54-3.27L53.77,53l1.83,2.29,1.79-1.43a1.32,1.32,0,0,0,.22-2.06A1.36,1.36,0,0,0,55.55,51.59Z"/><path class="cls-1" d="M69.81,46.16,66.63,44,64.45,47.3l3.18,2.12-.71,1.06-7.09-4.73.71-1.07L63.4,46.6l2.18-3.26-2.86-1.92.71-1.06,7.09,4.74Z"/><path class="cls-1" d="M73.58,38.33l-8.18-2.4L67,30.66l1.19.35-1.18,4,2,.6.69-2.35,1.19.35L70.17,36l2.58.76L74,32.54l1.19.35Z"/><path class="cls-1" d="M72.59,21.39,76,19.59l0,1.48-3.34,1.74,0,1.92,3.37-.05,0,1.25-8.52.13-.06-3.73a2.46,2.46,0,0,1,2.5-2.78A2.37,2.37,0,0,1,72.59,21.39Zm-3.82.92,0,2.48,2.74,0,0-2.48a1.29,1.29,0,0,0-1.38-1.43A1.3,1.3,0,0,0,68.77,22.31Z"/><path class="cls-1" d="M74.75,12.62l-8.23,2.2-.33-1.23,8.23-2.21Z"/><path class="cls-1" d="M70.54,1.78c1.07,1.92.17,4-2.09,5.28S63.93,8,62.86,6a3,3,0,0,1,0-3.31L64,3.38a1.84,1.84,0,0,0,0,2c.72,1.3,2.16,1.42,3.83.49s2.34-2.22,1.62-3.51a2,2,0,0,0-1.84-1.13L67.69,0A3.25,3.25,0,0,1,70.54,1.78Z"/><path class="cls-2" d="M78.16,69.55,70,67.18l1.53-5.27,1.19.35-1.17,4,2,.59.68-2.35,1.19.34-.67,2.35,2.58.75,1.22-4.22,1.19.35Z"/><path class="cls-2" d="M84.39,55l-6.32.18c-.38,0-1,0-1.23,0l1.7,1,3.8,2.25-.64,1.07-7.31-4.35.66-1.12,6.12-.13h1.39l-1.73-1-3.77-2.25.63-1.06L85,54Z"/><path class="cls-2" d="M90.74,47.64c-1.58,1.54-3.84,1.22-5.65-.63S83,42.9,84.6,41.36a3,3,0,0,1,3.18-.89l-.31,1.3a1.85,1.85,0,0,0-2,.5c-1.06,1-.79,2.46.54,3.83s2.75,1.66,3.82.62a2,2,0,0,0,.6-2.06l1.25-.24A3.27,3.27,0,0,1,90.74,47.64Z"/><path class="cls-2" d="M99.36,41.19c-1.92,1.09-4,.21-5.31-2s-1-4.51,1-5.6,4-.21,5.32,2S101.28,40.09,99.36,41.19Zm-3.72-6.53c-1.29.74-1.4,2.19-.46,3.85s2.25,2.3,3.54,1.57,1.42-2.2.47-3.86S96.94,33.92,95.64,34.66Z"/><path class="cls-2" d="M110.13,36.82c-2,.53-3.44-.52-4-2.8l-1.23-4.79,1.24-.32,1.22,4.76c.4,1.55,1.27,2.23,2.5,1.91s1.71-1.29,1.32-2.8l-1.24-4.84,1.24-.32,1.24,4.82C113,34.75,112.18,36.3,110.13,36.82Z"/><path class="cls-2" d="M123.8,35.33l-3.31-5.4c-.21-.32-.49-.84-.62-1.06,0,.32,0,1.5,0,2l-.07,4.42-1.24,0,.13-8.52,1.31,0L123.13,32c.21.36.57,1,.69,1.22,0-.32,0-1.54,0-2l.07-4.4,1.24,0L125,35.34Z"/><path class="cls-2" d="M135.35,30.05l-1.95,7-1.23-.34,2-7-2.4-.66.34-1.21,6,1.67-.34,1.21Z"/><path class="cls-2" d="M140.28,39.64l4.18-7.43,4.78,2.7L148.63,36,145,33.92l-1,1.84,2.13,1.2L145.45,38l-2.13-1.2L142,39.18l3.83,2.16-.61,1.08Z"/><path class="cls-2" d="M155,46l-1.14,3.72-1.07-1,1.11-3.61-1.39-1.33-2.33,2.44-.9-.87,5.89-6.15,2.69,2.58a2.45,2.45,0,0,1,.22,3.73A2.36,2.36,0,0,1,155,46Zm2-3.37L155.19,41l-1.89,2,1.79,1.72a1.29,1.29,0,0,0,2,0A1.31,1.31,0,0,0,157,42.67Z"/><path class="cls-2" d="M158.29,56.16a3.94,3.94,0,0,1-.41-3.3l1.23.31a3.13,3.13,0,0,0,.3,2.42c.62,1,1.27,1.29,2,.85s.58-.94.2-2.38c-.49-1.81-.56-2.78.74-3.58s2.67-.18,3.49,1.15a3.85,3.85,0,0,1,.48,3l-1.25-.3a2.59,2.59,0,0,0-.35-2.11c-.52-.85-1.16-1-1.64-.66s-.56.79-.16,2.28c.44,1.7.53,2.87-.76,3.67S159.43,58,158.29,56.16Z"/></svg>